<svg width="16" height="9" viewBox="0 0 16 9" fill="none" xmlns="http://www.w3.org/2000/svg">
<path fill-rule="evenodd" clip-rule="evenodd" d="M2.66283 3.11024C3.79827 4.37185 5.53146 5.60036 7.99973 5.60036C10.468 5.60036 12.2012 4.37185 13.3367 3.11024C13.9047 2.47903 14.3164 1.846 14.5857 1.37075C14.7201 1.13365 14.8182 0.937299 14.8819 0.8021C14.9138 0.734543 14.937 0.682386 14.9518 0.648196C14.9592 0.631105 14.9645 0.618517 14.9677 0.610754L14.971 0.602774L14.9714 0.601926C14.9713 0.602094 14.9712 0.602282 15.4664 0.800358C15.9616 0.998435 15.9615 0.998664 15.9614 0.998913L15.9612 0.999514L15.9605 1.00108L15.9587 1.00567L15.9525 1.02056C15.9474 1.03298 15.94 1.05034 15.9305 1.07231C15.9115 1.11625 15.8836 1.17867 15.8467 1.25695C15.773 1.41342 15.6627 1.63373 15.5138 1.89663C15.2164 2.42138 14.7614 3.12169 14.1295 3.82381C13.9344 4.04055 13.7219 4.25808 13.4913 4.471L15.3102 6.2899L14.556 7.04415L12.6628 5.15099C11.5878 5.92992 10.2211 6.54231 8.53307 6.65013L8.53308 8.80035L7.46642 8.80036L7.4664 6.65013C5.77837 6.54231 4.4117 5.92993 3.33669 5.151L1.44354 7.04415L0.689295 6.2899L2.50819 4.47101C2.27763 4.25809 2.06506 4.04055 1.86999 3.8238C1.23808 3.12169 0.783092 2.42138 0.485737 1.89663C0.336759 1.63373 0.226516 1.41341 0.152754 1.25695C0.115852 1.17867 0.0880203 1.11625 0.0689819 1.07231C0.059461 1.05034 0.0521336 1.03298 0.0469656 1.02056L0.0408267 1.00567L0.0389625 1.00108L0.0383302 0.999512L0.0380888 0.998911C0.0379889 0.998661 0.0378972 0.998432 0.533085 0.800358C1.02827 0.602285 1.0282 0.602096 1.02813 0.601928L1.02804 0.601692L1.02848 0.602776L1.03177 0.610757C1.035 0.61852 1.0403 0.631107 1.04771 0.648198C1.06252 0.682388 1.08573 0.734546 1.11758 0.802103C1.18132 0.937302 1.27941 1.13366 1.41376 1.37075C1.68307 1.84601 2.09474 2.47903 2.66283 3.11024ZM1.02799 0.601579C1.02797 0.601537 1.02799 0.601575 1.02804 0.601692L1.02799 0.601579Z" fill="#FF868E"/>
</svg>
